<svg width="809" height="600" viewBox="0 0 809 600" fill="none" xmlns="http://www.w3.org/2000/svg">
<circle cx="376.5" cy="284.5" r="284.5" fill="url(#paint0_linear)"/>
<circle cx="564" cy="311" r="27" fill="#6A11CB"/>
<circle cx="232" cy="450" r="27" fill="#6A11CB"/>
<circle cx="333" cy="377" r="27" fill="#6A11CB"/>
<circle cx="244" cy="300" r="27" fill="#6A11CB"/>
<circle cx="333" cy="182" r="27" fill="#6A11CB"/>
<circle cx="378" cy="263" r="27" fill="#6A11CB"/>
<ellipse cx="431" cy="443.5" rx="28" ry="24.5" transform="rotate(-11.2803 431 443.5)" fill="#6A11CB"/>
<circle cx="463" cy="236" r="27" fill="#6A11CB"/>
<circle cx="558" cy="197" r="27" fill="#6A11CB"/>
<circle cx="521" cy="128" r="27" fill="#6A11CB"/>
<circle cx="440" cy="317" r="27" fill="#6A11CB"/>
<ellipse cx="319.399" cy="502.611" rx="27" ry="20.5" transform="rotate(-27.3407 319.399 502.611)" fill="#6A11CB"/>
<ellipse cx="585.399" cy="388.611" rx="27" ry="20.5" transform="rotate(-27.3407 585.399 388.611)" fill="#6A11CB"/>
<circle cx="436" cy="123" r="27" fill="#6A11CB"/>
<circle cx="271" cy="96" r="27" fill="#6A11CB"/>
<circle cx="205" cy="190" r="27" fill="#6A11CB"/>
<circle cx="155" cy="344" r="27" fill="#6A11CB"/>
<circle cx="378" cy="52" r="27" fill="#6A11CB"/>
<path d="M601.256 80.4272C604.632 69.4217 615.194 59.0608 626.693 59.5943C658.304 61.0609 717.212 65.4749 732.622 71.1719C755.31 79.5591 767.837 90.8876 756.747 118.986C745.656 147.085 717.765 183.006 675.981 223.002C634.197 262.998 580.053 305.603 519.196 346.373C458.339 387.143 393 424.584 329.995 454.789C266.99 484.994 208.628 506.858 160.997 518.099C113.365 529.339 78.2107 529.545 59.2 518.695C41.7926 508.759 42.1078 478.424 53.7212 450.404C55.8564 445.253 59.2468 440.746 63.2304 436.844L68.9882 431.203C77.5681 422.799 89.5349 418.804 101.443 420.369V420.369C109.126 421.378 115.835 423.537 112.065 430.308C103.755 445.231 84.5277 474.245 95.4466 480.477C111.157 489.444 163.588 488.237 202.95 478.948C242.311 469.659 290.541 451.591 342.607 426.63C394.673 401.669 448.668 370.728 498.959 337.037C549.25 303.345 593.994 268.137 628.523 235.085C663.053 202.034 686.102 172.349 695.267 149.129C704.432 125.908 699.376 110.003 680.628 103.072C667.413 98.1864 648.943 99.7683 624.678 105.08C610.004 108.292 596.851 94.7876 601.256 80.4272V80.4272Z" fill="url(#paint1_linear)"/>
<ellipse cx="502" cy="456.5" rx="27" ry="22.5" transform="rotate(-34.5206 502 456.5)" fill="#6A11CB"/>
<ellipse cx="405.493" cy="546.38" rx="27" ry="18.5" transform="rotate(-26.3213 405.493 546.38)" fill="#6A11CB"/>
<defs>
<linearGradient id="paint0_linear" x1="376.5" y1="0" x2="376.5" y2="569" gradientUnits="userSpaceOnUse">
<stop stop-color="#667EEA"/>
<stop offset="1" stop-color="#764BA2"/>
</linearGradient>
<linearGradient id="paint1_linear" x1="52.3326" y1="512.948" x2="756.575" y2="86.4031" gradientUnits="userSpaceOnUse">
<stop stop-color="#6A11CB"/>
<stop offset="1" stop-color="#2575FC"/>
</linearGradient>
</defs>
</svg>
